PathFileType	4	(X/Y/Z)	F:\MotionCapture\20160217\3\Generated_files\EMG_Fprce_test01-Dynamic.trc
DataRate	CameraRate	NumFrames	NumMarkers	Units	OrigDataRate	OrigDataStartFrame	OrigNumFrames
120.00	120.00	       8	39	mm	120.00	143	       569
Frame#	Time	Top.Head			Front.Head			Rear.Head			R.Shoulder			R.Offset			R.Elbow			R.Wrist			L.Shoulder			L.Elbow			L.Wrist			R.ASIS			L.ASIS			V.Sacral			R.Thigh			R.Knee			R.Shank			R.Ankle			R.Heel			R.Toe			L.Thigh			L.Knee			L.Shank			L.Ankle			L.Heel			L.Toe			R1			R2			R3			R4			R5			R6			R7			L1			L2			L3			L4			L5			L6			L7			V_Mid_ASIS			V_Pelvis_Origin			V_R.Hip_JC			V_L.Hip_JC			V_R.Knee_JC			V_L.Knee_JC			V_R.Ankle_JC			V_L.Ankle_JC			V_Mid_Hip			V_Mid_Shoulder			V_R.Hand			V_L.Hand			V_R.Toe_Offset_Static			V_L.Toe_Offset_Static			V_R.Toe_Offset			V_L.Toe_Offset			
		X1	Y1	Z1	X2	Y2	Z2	X3	Y3	Z3	X4	Y4	Z4	X5	Y5	Z5	X6	Y6	Z6	X7	Y7	Z7	X8	Y8	Z8	X9	Y9	Z9	X10	Y10	Z10	X11	Y11	Z11	X12	Y12	Z12	X13	Y13	Z13	X14	Y14	Z14	X15	Y15	Z15	X16	Y16	Z16	X17	Y17	Z17	X18	Y18	Z18	X19	Y19	Z19	X20	Y20	Z20	X21	Y21	Z21	X22	Y22	Z22	X23	Y23	Z23	X24	Y24	Z24	X25	Y25	Z25	X26	Y26	Z26	X27	Y27	Z27	X28	Y28	Z28	X29	Y29	Z29	X30	Y30	Z30	X31	Y31	Z31	X32	Y32	Z32	X33	Y33	Z33	X34	Y34	Z34	X35	Y35	Z35	X36	Y36	Z36	X37	Y37	Z37	X38	Y38	Z38	X39	Y39	Z39	

143	1.183	1788.83533	91.55851	1731.59229	1669.08386	82.53284	1659.38538	1889.92261	89.53575	1652.52454	1829.08716	278.42200	1416.42676	1953.21289	2.38950	1283.47925	1917.21387	369.81387	1104.40784	1856.51306	379.26263	847.30786	1788.54028	-129.02460	1431.11377	1780.70447	-240.96486	1110.85315	1609.66870	-218.15814	915.32129				1755.55334	-79.99458	939.44550	1984.71362	55.18063	950.82367	1762.01404	198.69708	474.97128	1707.24731	160.22420	588.43707							1882.04736	123.51302	46.57340	1669.41089	166.91420	44.35513	1670.32605	-69.89659	632.11017	1756.00208	-127.69917	467.71564	1827.13123	-51.08368	345.82669	2083.85083	-81.35482	229.39783	2124.16284	-9.11728	257.20190	2019.72498	-101.19940	105.97288	1621.19836	146.12254	40.51506	1664.86865	129.85289	51.24765	1762.64490	95.79253	61.54362	1836.24084	93.37815	46.57679	1852.94324	167.77776	46.30455	1775.91431	194.67232	38.77301	1709.58252	211.70880	39.75161	1991.24524	-90.78552	68.41357	2005.07764	-68.16995	93.31596	2039.51843	-7.25748	164.48593	2095.15649	13.89763	221.82782	2118.11475	-54.30349	240.27823	2087.12231	-99.40830	181.19205	2052.88379	-120.84947	133.56624																																																	942.33307	268.92664	428.05780	1763.92358	119.50111	241.51280	1765.82776	208.18143	951.67596	1815.34314	187.24873	74.41042	
144	1.192	1780.83337	92.28179	1732.37793	1661.69739	83.23437	1660.40063	1882.27197	90.30944	1653.39172	1820.80603	279.20493	1417.54077	1945.64893	4.20015	1284.40417	1905.76465	372.79926	1104.51978	1838.78967	380.78949	848.92487	1782.13513	-128.20102	1431.89282	1777.37427	-240.99742	1111.80945	1609.95972	-221.64056	913.59583				1747.18408	-78.06008	941.14038	1976.41992	55.59779	951.84467	1759.95862	198.65329	475.07382	1702.90527	160.91516	587.17505							1882.03687	123.31031	46.61696	1669.46277	166.91493	44.34340	1656.07739	-68.47773	637.25549	1738.07910	-126.87809	470.79846	1807.58704	-49.29074	346.50821	2059.78979	-77.99216	224.01756	2102.66626	-6.96275	251.12099	1991.46057	-99.34908	104.68873	1621.30286	146.21904	40.56075	1664.84497	129.82051	51.19938	1762.53076	95.64484	61.42450	1836.07007	93.20754	46.80235	1852.97986	167.66245	46.47340	1775.96033	194.61746	38.77038	1709.69189	211.66045	39.72585	1961.02795	-88.79791	68.24063	1974.84900	-65.91393	92.74390	2013.93835	-5.19905	162.29436	2071.40381	15.95530	216.46484	2095.51880	-51.91339	234.53099	2061.67310	-97.37489	176.83046	2024.71790	-117.97565	131.00545																																																	911.08350	273.77213	429.89996	1763.30261	119.43489	241.19791	1757.85547	209.98523	952.63062	1815.19189	186.89578	74.01249	
145	1.200	1772.80786	92.77689	1733.08435	1653.83997	84.35630	1661.20337	1874.55396	91.25811	1654.27795	1812.95520	279.95038	1418.74646	1938.13330	5.63247	1284.99377	1894.14563	375.06375	1104.88440	1822.59827	382.33023	851.29663	1775.02429	-127.33321	1432.55005	1774.32581	-241.19545	1112.73682	1610.88208	-225.01346	910.91705				1738.53552	-76.58901	943.31299	1968.12427	56.20304	952.84106	1757.20435	198.74623	474.33273	1698.69006	161.23427	586.19385							1881.03894	122.59621	46.39048	1669.49634	166.96773	44.36320	1641.95593	-66.82053	642.35150	1720.75671	-125.41917	474.03967	1787.01062	-47.76104	348.42758	2036.19714	-75.94987	218.84999	2080.46216	-4.50936	243.19116	1962.66992	-96.80295	102.74857	1621.19885	146.12863	40.60697	1664.88025	129.62207	51.05951	1762.46667	95.63495	61.37033	1836.23462	93.57632	46.41522	1853.01416	167.48091	46.54246	1776.02551	194.62582	38.81938	1709.75476	211.62590	39.75544	1930.19324	-86.44804	68.12693	1944.63635	-63.78718	92.11012	1988.24915	-2.84218	158.57097	2046.64783	16.48199	211.59352	2072.82080	-49.54458	227.97462	2035.61401	-94.92439	170.79845	1996.08521	-116.17404	127.96445																																																	875.45398	279.07037	431.79105	1761.96228	119.94356	241.19684	1748.61975	211.53003	952.92285	1815.11548	187.29808	73.91700	
146	1.208	1765.24658	93.86127	1733.74377	1646.06421	84.18401	1661.92725	1866.90845	91.66305	1655.05322	1805.44092	281.27621	1419.91467	1930.75598	7.06189	1285.70862	1882.77820	377.07376	1105.31238	1804.17334	383.62982	853.79480	1767.87439	-126.35625	1433.04761	1771.18762	-241.28757	1113.83545	1611.58093	-228.50258	908.83368				1729.67383	-74.71423	944.91248	1959.91711	56.70986	953.76404	1754.67102	199.10693	474.22357	1695.69043	161.56714	584.96844							1881.01526	122.25642	45.97783	1669.56287	167.73145	44.70750	1628.57507	-65.71073	647.11371	1703.72107	-123.67966	476.91867	1767.46606	-45.68077	349.21152	2011.56213	-73.52091	212.34688	2057.77710	-2.34324	235.37323	1931.26819	-94.98344	101.21898	1621.65002	146.74065	40.84885	1665.13989	129.94307	51.09281	1762.31091	95.59093	61.35007	1836.16309	93.02695	46.67147	1851.37207	165.85898	45.30943	1776.08423	194.60045	38.79743	1709.69238	211.72054	39.72299	1898.79041	-84.62914	67.74395	1913.96326	-61.81353	90.85439	1961.37952	-0.79527	155.06909	2022.01648	18.50357	205.18575	2049.22266	-47.36653	220.05907	2009.48340	-93.19962	165.24338	1967.40906	-114.21511	123.97533																																																	840.08276	284.77399	433.80246	1759.57922	119.98606	241.54889	1741.54541	212.94870	952.82788	1815.05518	186.76424	74.05128	
147	1.217	1757.85132	93.95164	1734.40308	1638.37036	85.41393	1662.61597	1859.16772	92.41380	1655.84131	1797.63464	281.62369	1420.87988	1923.31714	8.22753	1286.23962	1871.36816	378.89368	1105.66602	1786.60303	384.17020	856.25677	1761.04382	-125.98350	1433.53833	1768.05737	-241.40938	1114.91125	1611.91614	-231.70488	906.77240				1721.82520	-73.03270	946.78986	1951.68384	57.10225	954.35828	1752.02002	199.56981	473.72934	1690.50317	161.77034	584.41254							1883.24048	123.67781	46.37943	1669.78674	167.80276	44.74253	1614.76453	-64.63749	652.11652	1686.84668	-122.06220	479.81265	1746.03699	-43.88854	350.74203	1986.56042	-71.94505	205.06015	2034.21521	0.01408	225.97005	1901.56738	-93.19508	98.92360	1621.95044	146.95645	41.11123	1665.16309	130.01038	51.08763	1762.27625	95.57433	61.33784	1835.28882	92.66972	46.84715	1852.18616	166.39340	46.01855	1776.22363	194.50368	38.76461	1709.83826	211.67679	39.76347	1867.04724	-82.99796	66.90121	1884.22852	-60.43956	88.66558	1934.02905	0.98788	150.37878	1996.89478	20.75131	197.45567	2024.28601	-44.64576	211.05692	1982.05212	-91.13580	158.83501	1938.61829	-112.06214	119.85617																																																	1758.67383	120.23317	241.41913	1735.44470	214.93584	953.17200	1815.05554	186.68567	74.02639	
148	1.225	1749.95581	94.93702	1734.95581	1630.43298	85.62737	1662.56848	1851.44727	92.84715	1656.24109	1790.03296	282.13257	1421.76282	1915.73901	9.36528	1286.69470	1860.31506	381.05084	1105.86755	1769.00928	386.11435	859.12610	1754.34985	-125.36181	1433.76904	1764.76392	-241.11104	1115.98584	1612.97607	-235.25633	904.16351				1713.54126	-71.36111	948.37665	1943.44702	57.49453	954.89972	1749.76355	199.81400	473.30298	1687.13196	161.76085	583.42218							1881.84387	122.83385	46.76068	1670.05200	167.89011	44.81985	1601.77991	-62.71152	655.98621	1671.18103	-120.79420	482.57050	1725.50989	-41.77526	352.27045	1961.60632	-69.81330	197.66124	2009.21191	2.63937	215.38370	1870.36377	-92.14319	96.09436	1622.10999	147.15283	41.22938	1665.27698	130.09065	51.04450	1762.25623	95.44020	61.22330	1835.61475	92.67320	46.89958	1852.27637	166.24382	46.04274	1776.29382	194.55278	38.86786	1710.04187	211.69832	39.67184	1835.51672	-81.94944	65.69495	1854.04370	-58.61644	86.28340	1905.73706	2.50488	144.54227	1972.24548	22.95337	188.54108	1999.15906	-41.94062	201.78400	1954.11133	-89.63841	151.96136	1910.20044	-109.90958	114.63849																																																	1757.30444	120.41561	241.33356	1728.05396	216.16519	953.48260	1815.04431	186.65530	74.02392	
149	1.233	1742.30042	95.21129	1735.40967	1623.64966	86.21162	1662.91675	1843.72009	93.21375	1656.61316	1782.80591	283.17590	1422.61609	1908.32825	10.40966	1286.86316	1849.49475	383.34366	1105.95837	1751.79504	386.71252	862.25891	1747.47070	-124.42924	1433.88074	1761.63708	-241.81642	1116.59937	1614.18945	-238.95735	902.27692				1704.29614	-69.51955	949.33875	1935.15906	57.62776	955.11212	1746.86658	199.87407	472.74286	1683.33032	162.16031	582.06458							1881.87781	122.69310	46.75933	1670.33093	168.13493	44.78782	1589.30676	-61.12361	660.25177	1655.49951	-119.07655	485.02655	1705.26428	-39.85801	352.80710	1935.62061	-68.17136	189.66158	1984.27380	4.27252	205.10249	1841.46045	-90.35603	92.79379	1622.24622	147.30981	41.34186	1665.33630	130.16406	50.95758	1762.34778	95.30227	61.06115	1835.60950	92.53419	46.89766	1852.48621	166.05759	46.18379	1776.38025	194.54465	38.84470	1709.95837	211.62515	39.53804	1800.86536	-80.28293	64.96192	1821.43604	-57.29447	84.30276	1878.00049	4.43734	139.11736	1945.75623	24.71589	179.89838	1973.91956	-40.65617	192.23862	1926.60352	-87.47376	144.50308	1879.31934	-108.92221	110.78555																																																	1755.54419	120.61075	240.59747	1719.45044	217.45576	953.80334	1908.30249	-141.06821	146.12418	1815.01172	186.61966	73.96703	
150	1.242	1734.26245	95.38163	1735.49670	1615.53833	86.83581	1663.02759	1836.07166	93.93774	1656.96497	1774.83118	283.82538	1423.53430	1900.78528	11.37634	1286.98303	1838.59583	385.38303	1106.54724	1734.41650	387.82153	864.98907	1740.36218	-124.01965	1433.85498	1757.96106	-241.79173	1117.21692	1615.21289	-242.77022	900.02118				1696.42151	-68.07470	950.63892	1927.19214	57.88435	955.25153	1742.92139	200.34029	472.27524	1678.31445	162.52534	581.25073							1881.94873	122.53378	46.83115	1670.54871	168.14589	44.82998	1576.26074	-59.57302	664.07367	1639.88110	-117.23826	486.85681	1686.09326	-37.52018	353.45746	1908.86218	-66.36276	180.97156	1958.66272	6.14268	193.62888	1809.84570	-88.96117	90.01406	1622.37061	147.39124	41.43000	1665.44482	130.16927	50.92907	1760.30066	94.90573	61.70559	1835.66577	92.43586	46.91196	1852.62073	165.87564	46.30832	1776.51868	194.46382	38.92109	1710.88562	211.85188	39.50756	1769.25061	-79.01270	63.54216	1789.31238	-56.22918	81.85910	1848.20996	5.62704	133.08890	1918.41919	26.26859	170.42630	1947.90955	-39.35986	182.28069	1898.33752	-86.09933	136.92267	1848.30273	-107.57643	105.66164																																																	1879.17883	-139.39658	140.27040	1754.66638	120.50104	239.94916	1712.12463	219.14896	953.44934	1713.07471	-69.82847	25.47953	1814.91211	186.56355	74.03878	
